# xmcd
#
# Track frame offsets: 
#        150
#        26683
#        50463
#        70453
#        91692
#        106685
#        126711
#        154934
#        172249
#        191255
#        213070
#        238100
#        254248
#
# Disc length: 3718 seconds
#
# Revision: 0
# Processed by: cddbd v1.5.2PL0 Copyright (c) Steve Scherf et al.
# Submitted via: ExactAudioCopy v0.95a4
#
DISCID=bb0e840d
DTITLE=Keith Urban - Love, Pain and the Whole Crazy Thing
DYEAR=2006
DGENRE=Country
TTITLE0=Once In a Lifetime
TTITLE1=Shine
TTITLE2=I Told You So
TTITLE3=I Can't Stop Loving You
TTITLE4=Won't Let You Down
TTITLE5=Faster Car
TTITLE6=Stupid Boy
TTITLE7=Used to the Pain
TTITLE8=Tu Compania
TTITLE9=God Made Woman
TTITLE10=Everybody
TTITLE11=Got It Right This Time
TTITLE12=Slow Turning
EXTD=
EXTT0=
EXTT1=
EXTT2=
EXTT3=
EXTT4=
EXTT5=
EXTT6=
EXTT7=
EXTT8=
EXTT9=
EXTT10=
EXTT11=
EXTT12=
PLAYORDER=
